<svg width="410" height="295" viewBox="0 0 410 295" fill="none" xmlns="http://www.w3.org/2000/svg">
<g filter="url(#filter0_d_167_311)">
<mask id="mask0_167_311" style="mask-type:alpha" maskUnits="userSpaceOnUse" x="40" y="30" width="330" height="215">
<rect x="40" y="30" width="330" height="215" rx="8" fill="#D1BBFF"/>
</mask>
<g mask="url(#mask0_167_311)">
<rect x="40" y="30" width="330" height="215" rx="8" fill="url(#paint0_linear_167_311)"/>
<ellipse cx="297.206" cy="140.635" rx="147.794" ry="148.26" fill="white" fill-opacity="0.12"/>
<g filter="url(#filter1_d_167_311)">
<path d="M77.7604 140.32V139.28L85.1804 130H86.7804L79.4204 139.28L78.6404 139.04H89.9004V140.32H77.7604ZM85.6604 144V140.32L85.7004 139.04V135.8H87.1004V144H85.6604ZM94.443 144L100.483 130.64L100.923 131.28H92.263L93.003 130.58V133.9H91.583V130H101.863V131.02L96.003 144H94.443ZM103.968 140.32V139.28L111.388 130H112.988L105.628 139.28L104.848 139.04H116.108V140.32H103.968ZM111.868 144V140.32L111.908 139.04V135.8H113.308V144H111.868ZM120.65 144L126.69 130.64L127.13 131.28H118.47L119.21 130.58V133.9H117.79V130H128.07V131.02L122.21 144H120.65ZM145.464 140.32V139.28L152.884 130H154.484L147.124 139.28L146.344 139.04H157.604V140.32H145.464ZM153.364 144V140.32L153.404 139.04V135.8H154.804V144H153.364ZM162.147 144L168.187 130.64L168.627 131.28H159.967L160.707 130.58V133.9H159.287V130H169.567V131.02L163.707 144H162.147ZM171.672 140.32V139.28L179.092 130H180.692L173.332 139.28L172.552 139.04H183.812V140.32H171.672ZM179.572 144V140.32L179.612 139.04V135.8H181.012V144H179.572ZM188.354 144L194.394 130.64L194.834 131.28H186.174L186.914 130.58V133.9H185.494V130H195.774V131.02L189.914 144H188.354ZM213.168 140.32V139.28L220.588 130H222.188L214.828 139.28L214.048 139.04H225.308V140.32H213.168ZM221.068 144V140.32L221.108 139.04V135.8H222.508V144H221.068ZM229.851 144L235.891 130.64L236.331 131.28H227.671L228.411 130.58V133.9H226.991V130H237.271V131.02L231.411 144H229.851ZM239.376 140.32V139.28L246.796 130H248.396L241.036 139.28L240.256 139.04H251.516V140.32H239.376ZM247.276 144V140.32L247.316 139.04V135.8H248.716V144H247.276ZM256.058 144L262.098 130.64L262.538 131.28H253.878L254.618 130.58V133.9H253.198V130H263.478V131.02L257.618 144H256.058ZM280.872 140.32V139.28L288.292 130H289.892L282.532 139.28L281.752 139.04H293.012V140.32H280.872ZM288.772 144V140.32L288.812 139.04V135.8H290.212V144H288.772ZM297.555 144L303.595 130.64L304.035 131.28H295.375L296.115 130.58V133.9H294.695V130H304.975V131.02L299.115 144H297.555ZM307.08 140.32V139.28L314.5 130H316.1L308.74 139.28L307.96 139.04H319.22V140.32H307.08ZM314.98 144V140.32L315.02 139.04V135.8H316.42V144H314.98ZM323.762 144L329.802 130.64L330.242 131.28H321.582L322.322 130.58V133.9H320.902V130H331.182V131.02L325.322 144H323.762Z" fill="white"/>
</g>
<g filter="url(#filter2_d_167_311)">
<path d="M63.7442 210.247L68.7842 199.047H70.8322L75.8882 210.247H73.7122L69.3762 200.151H70.2082L65.8882 210.247H63.7442ZM66.0642 207.655L66.6242 206.023H72.6722L73.2322 207.655H66.0642ZM77.7926 210.247V199.047H79.8726V208.487H85.7286V210.247H77.7926ZM89.7707 203.703H95.3387V205.415H89.7707V203.703ZM89.9307 208.503H96.2507V210.247H87.8507V199.047H96.0267V200.791H89.9307V208.503ZM97.5645 210.247L102.284 203.751V205.319L97.7885 199.047H100.14L103.484 203.687L102.524 203.703L105.836 199.047H108.092L103.628 205.207V203.703L108.38 210.247H105.98L102.46 205.319H103.404L99.9325 210.247H97.5645ZM108.352 210.247L113.392 199.047H115.44L120.496 210.247H118.32L113.984 200.151H114.816L110.496 210.247H108.352ZM110.672 207.655L111.232 206.023H117.28L117.84 207.655H110.672ZM122.4 210.247V199.047H124.112L131.136 207.671H130.288V199.047H132.352V210.247H130.64L123.616 201.623H124.464V210.247H122.4ZM135.833 210.247V199.047H140.729C141.945 199.047 143.012 199.281 143.929 199.751C144.847 200.22 145.561 200.871 146.073 201.703C146.585 202.535 146.841 203.516 146.841 204.647C146.841 205.767 146.585 206.748 146.073 207.591C145.561 208.423 144.847 209.073 143.929 209.543C143.012 210.012 141.945 210.247 140.729 210.247H135.833ZM137.913 208.487H140.633C141.476 208.487 142.201 208.327 142.809 208.007C143.428 207.687 143.903 207.239 144.233 206.663C144.575 206.087 144.745 205.415 144.745 204.647C144.745 203.868 144.575 203.196 144.233 202.631C143.903 202.055 143.428 201.607 142.809 201.287C142.201 200.967 141.476 200.807 140.633 200.807H137.913V208.487ZM149.532 210.247V199.047H154.14C155.132 199.047 155.98 199.207 156.684 199.527C157.399 199.847 157.948 200.305 158.332 200.903C158.716 201.5 158.908 202.209 158.908 203.031C158.908 203.852 158.716 204.561 158.332 205.159C157.948 205.745 157.399 206.199 156.684 206.519C155.98 206.828 155.132 206.983 154.14 206.983H150.684L151.612 206.039V210.247H149.532ZM156.86 210.247L154.028 206.183H156.252L159.1 210.247H156.86ZM151.612 206.263L150.684 205.271H154.044C154.961 205.271 155.649 205.073 156.108 204.679C156.577 204.284 156.812 203.735 156.812 203.031C156.812 202.316 156.577 201.767 156.108 201.383C155.649 200.999 154.961 200.807 154.044 200.807H150.684L151.612 199.783V206.263ZM160.131 210.247L165.171 199.047H167.219L172.275 210.247H170.099L165.763 200.151H166.595L162.275 210.247H160.131ZM162.451 207.655L163.011 206.023H169.059L169.619 207.655H162.451ZM182.553 210.407C181.679 210.407 180.841 210.284 180.041 210.039C179.241 209.783 178.607 209.457 178.137 209.063L178.857 207.447C179.305 207.799 179.86 208.092 180.521 208.327C181.183 208.561 181.86 208.679 182.553 208.679C183.14 208.679 183.615 208.615 183.977 208.487C184.34 208.359 184.607 208.188 184.777 207.975C184.948 207.751 185.033 207.5 185.033 207.223C185.033 206.881 184.911 206.609 184.665 206.407C184.42 206.193 184.1 206.028 183.705 205.911C183.321 205.783 182.889 205.665 182.409 205.559C181.94 205.452 181.465 205.329 180.985 205.191C180.516 205.041 180.084 204.855 179.689 204.631C179.305 204.396 178.991 204.087 178.745 203.703C178.5 203.319 178.377 202.828 178.377 202.231C178.377 201.623 178.537 201.068 178.857 200.567C179.188 200.055 179.684 199.649 180.345 199.351C181.017 199.041 181.865 198.887 182.889 198.887C183.561 198.887 184.228 198.972 184.889 199.143C185.551 199.313 186.127 199.559 186.617 199.879L185.961 201.495C185.46 201.196 184.943 200.977 184.409 200.839C183.876 200.689 183.364 200.615 182.873 200.615C182.297 200.615 181.828 200.684 181.465 200.823C181.113 200.961 180.852 201.143 180.681 201.367C180.521 201.591 180.441 201.847 180.441 202.135C180.441 202.476 180.559 202.753 180.793 202.967C181.039 203.169 181.353 203.329 181.737 203.447C182.132 203.564 182.569 203.681 183.049 203.799C183.529 203.905 184.004 204.028 184.473 204.167C184.953 204.305 185.385 204.487 185.769 204.711C186.164 204.935 186.479 205.239 186.713 205.623C186.959 206.007 187.081 206.492 187.081 207.079C187.081 207.676 186.916 208.231 186.585 208.743C186.265 209.244 185.769 209.649 185.097 209.959C184.425 210.257 183.577 210.407 182.553 210.407ZM189.624 210.247V199.047H191.336L196.232 207.223H195.336L200.152 199.047H201.864L201.88 210.247H199.912L199.896 202.135H200.312L196.216 208.967H195.288L191.128 202.135H191.608V210.247H189.624ZM205.385 210.247V199.047H207.465V210.247H205.385ZM213.246 210.247V200.807H209.534V199.047H219.038V200.807H215.326V210.247H213.246ZM228.951 199.047H231.031V210.247H228.951V199.047ZM223.159 210.247H221.079V199.047H223.159V210.247ZM229.111 205.447H222.983V203.671H229.111V205.447Z" fill="white"/>
</g>
<g filter="url(#filter3_d_167_311)">
<path d="M310.111 209.659C309.247 209.659 308.479 209.434 307.807 208.986C307.135 208.528 306.607 207.877 306.223 207.034C305.839 206.181 305.647 205.157 305.647 203.962C305.647 202.768 305.839 201.749 306.223 200.906C306.607 200.053 307.135 199.402 307.807 198.954C308.479 198.496 309.247 198.266 310.111 198.266C310.975 198.266 311.743 198.496 312.415 198.954C313.087 199.402 313.615 200.053 313.999 200.906C314.393 201.749 314.591 202.768 314.591 203.962C314.591 205.157 314.393 206.181 313.999 207.034C313.615 207.877 313.087 208.528 312.415 208.986C311.743 209.434 310.975 209.659 310.111 209.659ZM310.111 208.602C310.772 208.602 311.348 208.426 311.839 208.074C312.329 207.712 312.713 207.189 312.991 206.506C313.268 205.813 313.407 204.965 313.407 203.962C313.407 202.96 313.268 202.117 312.991 201.434C312.713 200.741 312.329 200.218 311.839 199.866C311.348 199.504 310.772 199.322 310.111 199.322C309.471 199.322 308.9 199.504 308.399 199.866C307.897 200.218 307.508 200.741 307.231 201.434C306.953 202.117 306.815 202.96 306.815 203.962C306.815 204.965 306.953 205.813 307.231 206.506C307.508 207.189 307.897 207.712 308.399 208.074C308.9 208.426 309.471 208.602 310.111 208.602ZM318.123 209.562L322.955 198.874L323.307 199.386H316.379L316.971 198.826V201.483H315.835V198.362H324.059V199.178L319.371 209.562H318.123ZM323.698 211.163L328.978 196.09H330.018L324.738 211.163H323.698ZM330.121 209.562V208.746L334.777 204.186C335.204 203.77 335.524 203.408 335.737 203.098C335.951 202.778 336.095 202.48 336.169 202.202C336.244 201.925 336.281 201.664 336.281 201.418C336.281 200.768 336.057 200.256 335.609 199.882C335.172 199.509 334.521 199.322 333.657 199.322C332.996 199.322 332.409 199.424 331.897 199.626C331.396 199.829 330.964 200.144 330.601 200.57L329.785 199.866C330.223 199.354 330.783 198.96 331.465 198.682C332.148 198.405 332.911 198.266 333.753 198.266C334.511 198.266 335.167 198.389 335.721 198.634C336.276 198.869 336.703 199.216 337.001 199.674C337.311 200.133 337.465 200.672 337.465 201.29C337.465 201.653 337.412 202.01 337.305 202.362C337.209 202.714 337.028 203.088 336.761 203.482C336.505 203.866 336.127 204.304 335.625 204.794L331.353 208.986L331.033 208.538H337.977V209.562H330.121ZM341.415 209.562V198.842L341.927 199.386H338.775V198.362H342.567V209.562H341.415Z" fill="white"/>
</g>
<path d="M324.104 61.6021H307.117V89.7705H324.104V61.6021Z" fill="#FF5F00"/>
<path d="M308.865 75.6882C308.863 72.9758 309.469 70.2985 310.636 67.8588C311.804 65.4192 313.503 63.2811 315.604 61.6065C313.001 59.5296 309.876 58.2382 306.584 57.8797C303.292 57.5212 299.968 58.1102 296.99 59.5793C294.013 61.0483 291.503 63.3383 289.746 66.1873C287.99 69.0364 287.059 72.3296 287.059 75.6907C287.059 79.0517 287.99 82.345 289.746 85.194C291.503 88.0431 294.013 90.333 296.99 91.8021C299.968 93.2712 303.292 93.8601 306.584 93.5016C309.876 93.1432 313.001 91.8517 315.604 89.7749C313.502 88.0997 311.803 85.9608 310.635 83.5203C309.468 81.0797 308.863 78.4014 308.865 75.6882Z" fill="#F24E1E"/>
<path d="M342.467 86.7897V86.2125H342.712V86.093H342.129V86.2125H342.359V86.7897H342.467ZM343.599 86.7897V86.093H343.423L343.217 86.5906L343.011 86.093H342.835V86.7897H342.962V86.2622L343.153 86.715H343.286L343.477 86.2622V86.7897H343.599Z" fill="#F79E1B"/>
<path d="M344.152 75.6885C344.152 79.0498 343.22 82.3432 341.464 85.1924C339.707 88.0415 337.196 90.3314 334.218 91.8003C331.24 93.2691 327.916 93.8577 324.624 93.4987C321.332 93.1397 318.206 91.8477 315.604 89.7702C317.704 88.094 319.403 85.9554 320.57 83.5156C321.738 81.0758 322.345 78.3986 322.345 75.686C322.345 72.9733 321.738 70.2961 320.57 67.8564C319.403 65.4166 317.704 63.2779 315.604 61.6018C318.206 59.5243 321.332 58.2322 324.624 57.8732C327.916 57.5142 331.24 58.1028 334.218 59.5717C337.196 61.0405 339.707 63.3304 341.464 66.1796C343.22 69.0287 344.152 72.3222 344.152 75.6835V75.6885Z" fill="#FFD25F"/>
</g>
</g>
<defs>
<filter id="filter0_d_167_311" x="0" y="0" width="410" height="295" filterUnits="userSpaceOnUse" color-interpolation-filters="sRGB">
<feFlood flood-opacity="0" result="BackgroundImageFix"/>
<feColorMatrix in="SourceAlpha" type="matrix" values="0 0 0 0 0 0 0 0 0 0 0 0 0 0 0 0 0 0 127 0" result="hardAlpha"/>
<feOffset dy="10"/>
<feGaussianBlur stdDeviation="20"/>
<feComposite in2="hardAlpha" operator="out"/>
<feColorMatrix type="matrix" values="0 0 0 0 0.462745 0 0 0 0 0.384314 0 0 0 0 0.741176 0 0 0 0.35 0"/>
<feBlend mode="normal" in2="BackgroundImageFix" result="effect1_dropShadow_167_311"/>
<feBlend mode="normal" in="SourceGraphic" in2="effect1_dropShadow_167_311" result="shape"/>
</filter>
<filter id="filter1_d_167_311" x="74.7598" y="127.701" width="259.422" height="20" filterUnits="userSpaceOnUse" color-interpolation-filters="sRGB">
<feFlood flood-opacity="0" result="BackgroundImageFix"/>
<feColorMatrix in="SourceAlpha" type="matrix" values="0 0 0 0 0 0 0 0 0 0 0 0 0 0 0 0 0 0 127 0" result="hardAlpha"/>
<feOffset dy="0.701049"/>
<feGaussianBlur stdDeviation="1.5"/>
<feColorMatrix type="matrix" values="0 0 0 0 0.302166 0 0 0 0 0.0193229 0 0 0 0 0.6625 0 0 0 0.3 0"/>
<feBlend mode="normal" in2="BackgroundImageFix" result="effect1_dropShadow_167_311"/>
<feBlend mode="normal" in="SourceGraphic" in2="effect1_dropShadow_167_311" result="shape"/>
</filter>
<filter id="filter2_d_167_311" x="60.7441" y="196.588" width="173.287" height="17.52" filterUnits="userSpaceOnUse" color-interpolation-filters="sRGB">
<feFlood flood-opacity="0" result="BackgroundImageFix"/>
<feColorMatrix in="SourceAlpha" type="matrix" values="0 0 0 0 0 0 0 0 0 0 0 0 0 0 0 0 0 0 127 0" result="hardAlpha"/>
<feOffset dy="0.701049"/>
<feGaussianBlur stdDeviation="1.5"/>
<feColorMatrix type="matrix" values="0 0 0 0 0.302166 0 0 0 0 0.0193229 0 0 0 0 0.6625 0 0 0 0.3 0"/>
<feBlend mode="normal" in2="BackgroundImageFix" result="effect1_dropShadow_167_311"/>
<feBlend mode="normal" in="SourceGraphic" in2="effect1_dropShadow_167_311" result="shape"/>
</filter>
<filter id="filter3_d_167_311" x="302.646" y="193.792" width="42.9199" height="21.072" filterUnits="userSpaceOnUse" color-interpolation-filters="sRGB">
<feFlood flood-opacity="0" result="BackgroundImageFix"/>
<feColorMatrix in="SourceAlpha" type="matrix" values="0 0 0 0 0 0 0 0 0 0 0 0 0 0 0 0 0 0 127 0" result="hardAlpha"/>
<feOffset dy="0.701049"/>
<feGaussianBlur stdDeviation="1.5"/>
<feColorMatrix type="matrix" values="0 0 0 0 0.302166 0 0 0 0 0.0193229 0 0 0 0 0.6625 0 0 0 0.3 0"/>
<feBlend mode="normal" in2="BackgroundImageFix" result="effect1_dropShadow_167_311"/>
<feBlend mode="normal" in="SourceGraphic" in2="effect1_dropShadow_167_311" result="shape"/>
</filter>
<linearGradient id="paint0_linear_167_311" x1="40" y1="137.5" x2="370" y2="137.5" gradientUnits="userSpaceOnUse">
<stop stop-color="#B993D6"/>
<stop offset="1" stop-color="#8CA6DB"/>
</linearGradient>
</defs>
</svg>
