<svg width="100" height="100" viewBox="0 0 100 100" fill="none" xmlns="http://www.w3.org/2000/svg">
<path d="M50.0002 83.3333C52.3014 83.3333 54.1668 81.4678 54.1668 79.1667C54.1668 76.8655 52.3014 75 50.0002 75C47.699 75 45.8335 76.8655 45.8335 79.1667C45.8335 81.4678 47.699 83.3333 50.0002 83.3333Z" fill="#C7C7C7"/>
<path d="M51.8335 45.8331L43.9169 37.9581L33.6669 27.7914L27.2085 21.3331L19.6252 13.7081C19.2367 13.3196 18.7755 13.0114 18.2679 12.8012C17.7603 12.5909 17.2163 12.4827 16.6669 12.4827C16.1175 12.4827 15.5734 12.5909 15.0658 12.8012C14.5582 13.0114 14.097 13.3196 13.7085 13.7081C12.9239 14.4927 12.4832 15.5569 12.4832 16.6664C12.4832 17.776 12.9239 18.8402 13.7085 19.6248L19.4585 25.3331L25.5419 31.4164L34.8335 40.7498L41.2919 47.1664L52.7085 58.5831L64.3335 70.2498L80.3752 86.2914C80.7626 86.682 81.2234 86.992 81.7311 87.2035C82.2389 87.415 82.7835 87.5239 83.3335 87.5239C83.8836 87.5239 84.4282 87.415 84.936 87.2035C85.4437 86.992 85.9045 86.682 86.2919 86.2914C86.6824 85.9041 86.9924 85.4433 87.2039 84.9355C87.4155 84.4278 87.5244 83.8832 87.5244 83.3331C87.5244 82.7831 87.4155 82.2384 87.2039 81.7307C86.9924 81.223 86.6824 80.7621 86.2919 80.3748L51.8335 45.8331ZM90.5002 33.0414C79.6478 22.5171 65.1176 16.6422 50.0002 16.6664C43.7105 16.6835 37.4643 17.7105 31.5002 19.7081L38.2502 26.4581C46.4244 24.4156 54.9844 24.4916 63.121 26.6789C71.2576 28.8661 78.7019 33.0924 84.7502 38.9581C85.5226 39.7026 86.5524 40.1205 87.6252 40.1248C88.1865 40.1226 88.7415 40.0071 89.2571 39.7852C89.7726 39.5632 90.2379 39.2394 90.6252 38.8331C91.3597 38.0401 91.7572 36.9926 91.7339 35.912C91.7106 34.8314 91.2682 33.8021 90.5002 33.0414ZM15.9169 27.7081C13.6562 29.334 11.512 31.1161 9.50021 33.0414C8.79703 33.8233 8.41551 34.8422 8.43216 35.8936C8.44882 36.9451 8.86243 37.9513 9.59002 38.7106C10.3176 39.4698 11.3054 39.9258 12.3552 39.9872C13.4049 40.0486 14.4391 39.7107 15.2502 39.0414C17.3281 37.0778 19.5572 35.2806 21.9169 33.6664L15.9169 27.7081ZM70.8335 54.7498C71.2194 55.1435 71.6796 55.4567 72.1874 55.6712C72.6953 55.8858 73.2406 55.9975 73.7919 55.9998C74.6061 55.9967 75.4016 55.7551 76.0801 55.3048C76.7585 54.8545 77.2902 54.2154 77.6093 53.4663C77.9285 52.7171 78.0211 51.8909 77.8758 51.0897C77.7306 50.2885 77.3537 49.5475 76.7919 48.9581C73.3166 45.3571 69.1558 42.4881 64.5545 40.5203C59.9532 38.5524 55.0046 37.5254 50.0002 37.4998H49.3335L59.1252 47.2914C63.5714 48.799 67.5879 51.3576 70.8335 54.7498ZM30.9585 42.7498C28.0469 44.4456 25.383 46.5347 23.0419 48.9581C22.2739 49.7703 21.8599 50.8544 21.8912 51.9718C21.9225 53.0892 22.3963 54.1484 23.2085 54.9164C24.0208 55.6845 25.1048 56.0984 26.2222 56.0671C27.3396 56.0359 28.3989 55.562 29.1669 54.7498C31.5943 52.3365 34.4117 50.3503 37.5002 48.8748L30.9585 42.7498ZM35.5419 64.1664C34.7462 64.9345 34.2883 65.9871 34.2687 67.0928C34.2591 67.6403 34.3573 68.1843 34.5579 68.6938C34.7585 69.2033 35.0574 69.6683 35.4377 70.0623C35.818 70.4562 36.2722 70.7714 36.7743 70.9899C37.2764 71.2083 37.8166 71.3257 38.3641 71.3354C39.4697 71.355 40.5379 70.9345 41.3335 70.1664C43.4786 68.1881 46.2374 67.0054 49.1493 66.8158C52.0612 66.6262 54.9501 67.4412 57.3335 69.1248L46.8335 58.6248C42.5886 59.2645 38.6449 61.2 35.5419 64.1664Z" fill="#C7C7C7"/>
</svg>
