<svg width="174" height="27" viewBox="0 0 174 27" fill="none" xmlns="http://www.w3.org/2000/svg">
<path d="M0.656 26V3.6H10.352C12.3573 3.6 14.0853 3.93067 15.536 4.592C16.9867 5.232 18.1067 6.16 18.896 7.376C19.6853 8.592 20.08 10.0427 20.08 11.728C20.08 13.392 19.6853 14.832 18.896 16.048C18.1067 17.264 16.9867 18.2027 15.536 18.864C14.0853 19.504 12.3573 19.824 10.352 19.824H3.536L5.84 17.488V26H0.656ZM5.84 18.064L3.536 15.6H10.064C11.664 15.6 12.8587 15.2587 13.648 14.576C14.4373 13.8933 14.832 12.944 14.832 11.728C14.832 10.4907 14.4373 9.53067 13.648 8.848C12.8587 8.16533 11.664 7.824 10.064 7.824H3.536L5.84 5.36V18.064ZM23.7415 26V8.784H28.7335V26H23.7415ZM26.2375 6.384C25.3202 6.384 24.5735 6.11733 23.9975 5.584C23.4215 5.05067 23.1335 4.38933 23.1335 3.6C23.1335 2.81067 23.4215 2.14933 23.9975 1.616C24.5735 1.08267 25.3202 0.815998 26.2375 0.815998C27.1548 0.815998 27.9015 1.072 28.4775 1.584C29.0535 2.07467 29.3415 2.71467 29.3415 3.504C29.3415 4.336 29.0535 5.02933 28.4775 5.584C27.9228 6.11733 27.1762 6.384 26.2375 6.384ZM40.7585 26.256C39.1372 26.256 37.6758 25.8933 36.3745 25.168C35.0732 24.4213 34.0385 23.3867 33.2705 22.064C32.5238 20.7413 32.1505 19.184 32.1505 17.392C32.1505 15.5787 32.5238 14.0107 33.2705 12.688C34.0385 11.3653 35.0732 10.3413 36.3745 9.616C37.6758 8.89067 39.1372 8.528 40.7585 8.528C42.2092 8.528 43.4785 8.848 44.5665 9.488C45.6545 10.128 46.4972 11.0987 47.0945 12.4C47.6918 13.7013 47.9905 15.3653 47.9905 17.392C47.9905 19.3973 47.7025 21.0613 47.1265 22.384C46.5505 23.6853 45.7185 24.656 44.6305 25.296C43.5638 25.936 42.2732 26.256 40.7585 26.256ZM41.6225 22.16C42.4332 22.16 43.1692 21.968 43.8305 21.584C44.4918 21.2 45.0145 20.656 45.3985 19.952C45.8038 19.2267 46.0065 18.3733 46.0065 17.392C46.0065 16.3893 45.8038 15.536 45.3985 14.832C45.0145 14.128 44.4918 13.584 43.8305 13.2C43.1692 12.816 42.4332 12.624 41.6225 12.624C40.7905 12.624 40.0438 12.816 39.3825 13.2C38.7212 13.584 38.1878 14.128 37.7825 14.832C37.3985 15.536 37.2065 16.3893 37.2065 17.392C37.2065 18.3733 37.3985 19.2267 37.7825 19.952C38.1878 20.656 38.7212 21.2 39.3825 21.584C40.0438 21.968 40.7905 22.16 41.6225 22.16ZM46.1345 26V22.48L46.2305 17.36L45.9105 12.272V2.256H50.9025V26H46.1345ZM64.0668 26.256C62.1041 26.256 60.3761 25.872 58.8828 25.104C57.4108 24.336 56.2694 23.2907 55.4588 21.968C54.6481 20.624 54.2428 19.0987 54.2428 17.392C54.2428 15.664 54.6374 14.1387 55.4268 12.816C56.2374 11.472 57.3361 10.4267 58.7228 9.68C60.1094 8.912 61.6774 8.528 63.4268 8.528C65.1121 8.528 66.6268 8.89067 67.9708 9.616C69.3361 10.32 70.4134 11.344 71.2028 12.688C71.9921 14.0107 72.3868 15.6 72.3868 17.456C72.3868 17.648 72.3761 17.872 72.3548 18.128C72.3334 18.3627 72.3121 18.5867 72.2908 18.8H58.3068V15.888H69.6667L67.7468 16.752C67.7468 15.856 67.5654 15.0773 67.2028 14.416C66.8401 13.7547 66.3388 13.2427 65.6988 12.88C65.0588 12.496 64.3121 12.304 63.4588 12.304C62.6054 12.304 61.8481 12.496 61.1868 12.88C60.5468 13.2427 60.0454 13.7653 59.6828 14.448C59.3201 15.1093 59.1388 15.8987 59.1388 16.816V17.584C59.1388 18.5227 59.3414 19.3547 59.7468 20.08C60.1734 20.784 60.7601 21.328 61.5068 21.712C62.2748 22.0747 63.1708 22.256 64.1948 22.256C65.1121 22.256 65.9121 22.1173 66.5948 21.84C67.2988 21.5627 67.9388 21.1467 68.5148 20.592L71.1708 23.472C70.3814 24.368 69.3894 25.0613 68.1948 25.552C67.0001 26.0213 65.6241 26.256 64.0668 26.256ZM83.1023 26.384C81.4596 26.384 79.9983 26.1173 78.7183 25.584C77.4383 25.0507 76.4249 24.3253 75.6783 23.408C74.9316 22.4907 74.5583 21.4347 74.5583 20.24C74.5583 19.1307 74.8036 18.1387 75.2943 17.264C75.7849 16.368 76.5636 15.536 77.6302 14.768C78.6969 13.9787 80.0516 13.2107 81.6943 12.464C82.8889 11.9093 83.8276 11.4187 84.5103 10.992C85.1929 10.5653 85.6729 10.16 85.9503 9.776C86.2276 9.37067 86.3663 8.96533 86.3663 8.56C86.3663 8.00533 86.1743 7.55733 85.7903 7.216C85.4276 6.87467 84.8836 6.704 84.1583 6.704C83.3903 6.704 82.7929 6.896 82.3663 7.28C81.9396 7.664 81.7263 8.15467 81.7263 8.752C81.7263 9.072 81.7903 9.392 81.9183 9.712C82.0463 10.0107 82.2916 10.3627 82.6543 10.768C83.0169 11.152 83.5289 11.6533 84.1903 12.272L95.9983 23.216L93.2783 26.384L80.2543 14.288C79.5076 13.6053 78.9103 12.9653 78.4623 12.368C78.0143 11.7707 77.6836 11.184 77.4703 10.608C77.2783 10.032 77.1823 9.43467 77.1823 8.816C77.1823 7.728 77.4703 6.768 78.0463 5.936C78.6223 5.104 79.4329 4.464 80.4783 4.016C81.5236 3.54667 82.7503 3.312 84.1583 3.312C85.4596 3.312 86.5796 3.52533 87.5183 3.952C88.4783 4.35733 89.2249 4.944 89.7583 5.712C90.3129 6.48 90.5903 7.39733 90.5903 8.464C90.5903 9.40267 90.3556 10.2667 89.8863 11.056C89.4169 11.824 88.6809 12.5493 87.6783 13.232C86.6969 13.9147 85.4063 14.608 83.8063 15.312C82.7183 15.8027 81.8543 16.2827 81.2143 16.752C80.5956 17.2 80.1476 17.6587 79.8703 18.128C79.5929 18.5973 79.4543 19.12 79.4543 19.696C79.4543 20.2293 79.6143 20.7093 79.9343 21.136C80.2756 21.5627 80.7449 21.8933 81.3423 22.128C81.9396 22.3627 82.6436 22.48 83.4543 22.48C84.7556 22.48 85.9503 22.1813 87.0383 21.584C88.1263 20.9653 89.0436 20.0587 89.7903 18.864C90.5583 17.648 91.1023 16.176 91.4223 14.448L95.4223 15.696C94.9743 17.872 94.1743 19.76 93.0223 21.36C91.8703 22.96 90.4516 24.1973 88.7663 25.072C87.0809 25.9467 85.1929 26.384 83.1023 26.384ZM99.3435 26V3.6H109.04C111.045 3.6 112.773 3.93067 114.224 4.592C115.674 5.232 116.794 6.16 117.584 7.376C118.373 8.592 118.768 10.0427 118.768 11.728C118.768 13.392 118.373 14.832 117.584 16.048C116.794 17.264 115.674 18.2027 114.224 18.864C112.773 19.504 111.045 19.824 109.04 19.824H102.224L104.528 17.488V26H99.3435ZM104.528 18.064L102.224 15.6H108.752C110.352 15.6 111.546 15.2587 112.336 14.576C113.125 13.8933 113.52 12.944 113.52 11.728C113.52 10.4907 113.125 9.53067 112.336 8.848C111.546 8.16533 110.352 7.824 108.752 7.824H102.224L104.528 5.36V18.064ZM132.52 26V22.64L132.2 21.904V15.888C132.2 14.8213 131.87 13.9893 131.208 13.392C130.568 12.7947 129.576 12.496 128.232 12.496C127.315 12.496 126.408 12.6453 125.512 12.944C124.638 13.2213 123.891 13.6053 123.272 14.096L121.48 10.608C122.419 9.94667 123.55 9.43467 124.872 9.072C126.195 8.70933 127.539 8.528 128.904 8.528C131.528 8.528 133.566 9.14667 135.016 10.384C136.467 11.6213 137.192 13.552 137.192 16.176V26H132.52ZM127.272 26.256C125.928 26.256 124.776 26.032 123.816 25.584C122.856 25.1147 122.12 24.4853 121.608 23.696C121.096 22.9067 120.84 22.0213 120.84 21.04C120.84 20.016 121.086 19.12 121.576 18.352C122.088 17.584 122.888 16.9867 123.976 16.56C125.064 16.112 126.483 15.888 128.232 15.888H132.808V18.8H128.776C127.603 18.8 126.792 18.992 126.344 19.376C125.918 19.76 125.704 20.24 125.704 20.816C125.704 21.456 125.95 21.968 126.44 22.352C126.952 22.7147 127.646 22.896 128.52 22.896C129.352 22.896 130.099 22.704 130.76 22.32C131.422 21.9147 131.902 21.328 132.2 20.56L132.968 22.864C132.606 23.9733 131.944 24.816 130.984 25.392C130.024 25.968 128.787 26.256 127.272 26.256ZM147.502 26.256C146.03 26.256 144.612 26.0853 143.246 25.744C141.902 25.3813 140.836 24.9333 140.046 24.4L141.71 20.816C142.5 21.3067 143.428 21.712 144.494 22.032C145.582 22.3307 146.649 22.48 147.694 22.48C148.846 22.48 149.657 22.3413 150.126 22.064C150.617 21.7867 150.862 21.4027 150.862 20.912C150.862 20.5067 150.67 20.208 150.286 20.016C149.924 19.8027 149.433 19.6427 148.814 19.536C148.196 19.4293 147.513 19.3227 146.766 19.216C146.041 19.1093 145.305 18.9707 144.558 18.8C143.812 18.608 143.129 18.3307 142.51 17.968C141.892 17.6053 141.39 17.1147 141.006 16.496C140.644 15.8773 140.462 15.0773 140.462 14.096C140.462 13.008 140.772 12.048 141.39 11.216C142.03 10.384 142.948 9.73333 144.142 9.264C145.337 8.77333 146.766 8.528 148.43 8.528C149.604 8.528 150.798 8.656 152.014 8.912C153.23 9.168 154.244 9.54133 155.054 10.032L153.39 13.584C152.558 13.0933 151.716 12.7627 150.862 12.592C150.03 12.4 149.22 12.304 148.43 12.304C147.321 12.304 146.51 12.4533 145.998 12.752C145.486 13.0507 145.23 13.4347 145.23 13.904C145.23 14.3307 145.412 14.6507 145.774 14.864C146.158 15.0773 146.66 15.248 147.278 15.376C147.897 15.504 148.569 15.6213 149.294 15.728C150.041 15.8133 150.788 15.952 151.534 16.144C152.281 16.336 152.953 16.6133 153.55 16.976C154.169 17.3173 154.67 17.7973 155.054 18.416C155.438 19.0133 155.63 19.8027 155.63 20.784C155.63 21.8507 155.31 22.8 154.67 23.632C154.03 24.4427 153.102 25.0827 151.886 25.552C150.692 26.0213 149.23 26.256 147.502 26.256ZM169.27 26V22.64L168.95 21.904V15.888C168.95 14.8213 168.62 13.9893 167.958 13.392C167.318 12.7947 166.326 12.496 164.982 12.496C164.065 12.496 163.158 12.6453 162.262 12.944C161.388 13.2213 160.641 13.6053 160.022 14.096L158.23 10.608C159.169 9.94667 160.3 9.43467 161.622 9.072C162.945 8.70933 164.289 8.528 165.654 8.528C168.278 8.528 170.316 9.14667 171.766 10.384C173.217 11.6213 173.942 13.552 173.942 16.176V26H169.27ZM164.022 26.256C162.678 26.256 161.526 26.032 160.566 25.584C159.606 25.1147 158.87 24.4853 158.358 23.696C157.846 22.9067 157.59 22.0213 157.59 21.04C157.59 20.016 157.836 19.12 158.326 18.352C158.838 17.584 159.638 16.9867 160.726 16.56C161.814 16.112 163.233 15.888 164.982 15.888H169.558V18.8H165.526C164.353 18.8 163.542 18.992 163.094 19.376C162.668 19.76 162.454 20.24 162.454 20.816C162.454 21.456 162.7 21.968 163.19 22.352C163.702 22.7147 164.396 22.896 165.27 22.896C166.102 22.896 166.849 22.704 167.51 22.32C168.172 21.9147 168.652 21.328 168.95 20.56L169.718 22.864C169.356 23.9733 168.694 24.816 167.734 25.392C166.774 25.968 165.537 26.256 164.022 26.256Z" fill="white"/>
</svg>
