<svg width="19" height="20" viewBox="0 0 19 20" fill="none" xmlns="http://www.w3.org/2000/svg">
<path d="M13.4842 11.7333H12.632L12.3299 11.4453C13.3871 10.2293 14.0235 8.65067 14.0235 6.93333C14.0235 3.104 10.8844 0 7.01176 0C3.13911 0 0 3.104 0 6.93333C0 10.7627 3.13911 13.8667 7.01176 13.8667C8.74852 13.8667 10.345 13.2373 11.5748 12.192L11.8661 12.4907V13.3333L17.1398 19.1158C17.5651 19.5821 18.305 19.5628 18.7053 19.075C19.0253 18.685 19.0178 18.1213 18.6876 17.74L13.4842 11.7333ZM7.01176 11.7333C4.32572 11.7333 2.15746 9.58933 2.15746 6.93333C2.15746 4.27733 4.32572 2.13333 7.01176 2.13333C9.6978 2.13333 11.8661 4.27733 11.8661 6.93333C11.8661 9.58933 9.6978 11.7333 7.01176 11.7333Z" fill="#030303"/>
</svg>
